<svg width="231" height="48" viewBox="0 0 231 48" fill="none" xmlns="http://www.w3.org/2000/svg">
<path d="M36.264 21.656C37.8427 21.656 39.016 22.7013 39.784 24.792C40.5947 26.84 41 29.208 41 31.896C41 35.0107 40.488 37.784 39.464 40.216C38.44 42.648 37.1173 44.5253 35.496 45.848C33.9173 47.1707 32.296 47.832 30.632 47.832C29.3947 47.832 28.2 47.448 27.048 46.68C25.896 45.8693 24.8933 44.76 24.04 43.352C22.888 44.76 21.6293 45.8693 20.264 46.68C18.8987 47.448 17.512 47.832 16.104 47.832C13.7147 47.832 11.816 47 10.408 45.336C9 43.672 8.296 41.4533 8.296 38.68C8.296 37.3147 8.46667 35.8853 8.808 34.392C9.192 32.8987 9.72533 31.128 10.408 29.08C10.408 29.08 10.6213 28.44 11.048 27.16C11.176 26.8187 11.24 26.5413 11.24 26.328C11.24 25.816 10.8773 25.56 10.152 25.56H6.44C5.20267 25.56 4.28533 25.6453 3.688 25.816C3.13333 25.944 2.728 26.2427 2.472 26.712C2.216 27.1387 2.00267 27.864 1.832 28.888C1.832 29.016 1.72533 29.08 1.512 29.08C1.34133 29.08 1.192 29.0373 1.064 28.952C0.978667 28.8667 0.957333 28.76 1 28.632C1.384 26.6267 1.72533 25.2187 2.024 24.408C2.36533 23.5547 2.87733 22.9787 3.56 22.68C4.24267 22.3813 5.30933 22.232 6.76 22.232H13.032C13.4587 22.232 13.6933 22.2747 13.736 22.36C13.8213 22.4453 13.8 22.6587 13.672 23C13.032 25.304 12.5413 27.608 12.2 29.912C11.8587 32.216 11.7093 34.2427 11.752 35.992C11.752 39.064 12.2853 41.3253 13.352 42.776C14.4613 44.184 15.8693 44.888 17.576 44.888C19.7947 44.888 21.672 43.8853 23.208 41.88C21.7573 38.8507 21.032 35.2667 21.032 31.128C21.032 28.44 21.3307 26.2427 21.928 24.536C22.568 22.7867 23.4853 21.912 24.68 21.912C25.704 21.912 26.536 22.552 27.176 23.832C27.816 25.112 28.136 27.0747 28.136 29.72C28.136 33.944 27.2827 37.656 25.576 40.856C27.4533 43.3733 29.544 44.632 31.848 44.632C33.0853 44.632 34.2587 44.248 35.368 43.48C36.52 42.6693 37.4373 41.496 38.12 39.96C38.8453 38.3813 39.208 36.5253 39.208 34.392C39.208 32.216 38.8667 30.5307 38.184 29.336C37.544 28.0987 36.6907 26.968 35.624 25.944C35.0693 25.5173 34.6427 25.112 34.344 24.728C34.0453 24.344 33.896 23.9173 33.896 23.448C33.896 22.8507 34.1307 22.4027 34.6 22.104C35.0693 21.8053 35.624 21.656 36.264 21.656ZM22.12 30.296C22.12 31.9173 22.3333 33.5387 22.76 35.16C23.2293 36.7387 23.8693 38.1893 24.68 39.512C25.7893 37.1653 26.344 34.3493 26.344 31.064C26.344 27.608 25.6187 25.88 24.168 25.88C23.4427 25.88 22.9093 26.328 22.568 27.224C22.2693 28.0773 22.12 29.1013 22.12 30.296ZM54.051 47.576C52.8563 47.576 51.939 47.1493 51.299 46.296C50.7017 45.4427 50.4243 44.184 50.467 42.52L50.659 27.992C50.7017 25.4747 50.083 24.216 48.803 24.216C47.779 24.216 46.3497 25.24 44.515 27.288C44.4297 27.3733 44.3657 27.416 44.323 27.416C44.1523 27.416 44.003 27.352 43.875 27.224C43.747 27.0533 43.7257 26.904 43.811 26.776C45.091 25.0693 46.2857 23.8107 47.395 23C48.5043 22.1467 49.6563 21.72 50.851 21.72C52.0457 21.72 52.9203 22.1253 53.475 22.936C54.0297 23.7467 54.307 24.984 54.307 26.648L54.115 41.304C54.115 43.7787 54.7123 45.016 55.907 45.016C56.9737 45.016 58.339 44.0347 60.003 42.072C60.0457 42.0293 60.1097 42.008 60.195 42.008C60.3657 42.008 60.515 42.0933 60.643 42.264C60.8137 42.392 60.8563 42.4987 60.771 42.584C59.4483 44.2907 58.275 45.5493 57.251 46.36C56.227 47.1707 55.1603 47.576 54.051 47.576ZM51.811 14.232C50.915 14.232 50.211 13.9973 49.699 13.528C49.187 13.016 48.931 12.312 48.931 11.416C48.931 10.6053 49.187 9.96533 49.699 9.496C50.211 9.02667 50.915 8.792 51.811 8.792C52.6217 8.792 53.2617 9.02667 53.731 9.496C54.243 9.96533 54.499 10.6053 54.499 11.416C54.499 12.312 54.2643 13.016 53.795 13.528C53.3257 13.9973 52.6643 14.232 51.811 14.232ZM69.396 47.576C68.2013 47.576 67.284 47.1493 66.644 46.296C66.004 45.4427 65.7053 44.184 65.748 42.52L66.132 7.384C66.132 6.36 65.9827 5.61333 65.684 5.144C65.3853 4.632 64.8733 4.376 64.148 4.376C63.4227 4.376 62.356 4.696 60.948 5.336L60.82 5.4C60.692 5.4 60.5853 5.29333 60.5 5.08C60.4147 4.86666 60.4573 4.71733 60.628 4.632L68.884 0.599998H69.012C69.1827 0.599998 69.332 0.663998 69.46 0.791996C69.6307 0.919997 69.716 1.02666 69.716 1.112L69.396 41.304C69.396 42.584 69.5453 43.5227 69.844 44.12C70.1427 44.7173 70.612 45.016 71.252 45.016C72.3187 45.016 73.6627 44.0347 75.284 42.072C75.3267 42.0293 75.3907 42.008 75.476 42.008C75.6467 42.008 75.796 42.0933 75.924 42.264C76.0947 42.392 76.1373 42.4987 76.052 42.584C74.7293 44.2907 73.556 45.5493 72.532 46.36C71.5507 47.1707 70.5053 47.576 69.396 47.576ZM107.156 42.072C107.199 42.0293 107.263 42.008 107.348 42.008C107.476 42.008 107.604 42.0933 107.732 42.264C107.903 42.392 107.967 42.4987 107.924 42.584C106.559 44.3333 105.364 45.6133 104.34 46.424C103.359 47.192 102.313 47.576 101.204 47.576C100.009 47.576 99.092 47.1493 98.452 46.296C97.8547 45.4 97.5773 44.1413 97.62 42.52L97.748 35.224C96.4253 39.1067 94.7613 42.1787 92.756 44.44C90.7933 46.7013 88.5747 47.832 86.1 47.832C84.0947 47.832 82.3667 47.0853 80.916 45.592C79.508 44.0987 78.804 41.8373 78.804 38.808C78.804 35.7787 79.5293 32.9413 80.98 30.296C82.4307 27.608 84.3293 25.4747 86.676 23.896C89.0653 22.2747 91.54 21.464 94.1 21.464C95.5507 21.464 96.8307 21.7413 97.94 22.296L98.132 7.384C98.2173 5.37867 97.5347 4.376 96.084 4.376C95.2733 4.376 94.1853 4.696 92.82 5.336C92.7773 5.37866 92.7133 5.4 92.628 5.4C92.4573 5.4 92.3293 5.29333 92.244 5.08C92.2013 4.86666 92.2653 4.71733 92.436 4.632L100.82 0.599998H100.948C101.076 0.599998 101.225 0.663998 101.396 0.791996C101.567 0.919997 101.652 1.02666 101.652 1.112L101.268 41.304C101.268 42.584 101.396 43.5227 101.652 44.12C101.951 44.7173 102.42 45.016 103.06 45.016C104.041 45.016 105.407 44.0347 107.156 42.072ZM87.764 44.696C89.7267 44.696 91.4547 43.8213 92.948 42.072C94.484 40.28 95.6787 38.168 96.532 35.736C97.3853 33.2613 97.812 31.0853 97.812 29.208C97.812 27.416 97.3213 26.0507 96.34 25.112C95.3587 24.1733 93.9507 23.704 92.116 23.704C90.2387 23.704 88.5533 24.216 87.06 25.24C85.5667 26.2213 84.3933 27.672 83.54 29.592C82.6867 31.4693 82.26 33.7093 82.26 36.312C82.3027 39.128 82.8147 41.24 83.796 42.648C84.7773 44.0133 86.1 44.696 87.764 44.696ZM127.735 21.464C129.911 21.464 131.66 22.36 132.983 24.152C134.348 25.9013 135.031 28.1627 135.031 30.936C135.031 34.392 134.22 37.4 132.599 39.96C130.977 42.52 128.972 44.4827 126.583 45.848C124.193 47.1707 121.868 47.832 119.607 47.832C117.217 47.832 115.276 47.32 113.783 46.296C112.332 45.2293 111.628 43.8213 111.671 42.072L112.119 7.384C112.119 5.37867 111.415 4.376 110.007 4.376C109.196 4.376 108.087 4.696 106.678 5.336H106.614C106.486 5.336 106.38 5.22933 106.294 5.016C106.209 4.80267 106.252 4.67466 106.422 4.632L114.679 0.599998H114.807C114.977 0.599998 115.148 0.663998 115.319 0.791996C115.489 0.919997 115.575 1.02666 115.575 1.112L115.447 33.112C116.343 29.6987 117.9 26.904 120.119 24.728C122.38 22.552 124.919 21.464 127.735 21.464ZM122.167 46.168C123.703 46.168 125.132 45.6347 126.455 44.568C127.82 43.5013 128.908 41.9653 129.719 39.96C130.529 37.9547 130.935 35.608 130.935 32.92C130.935 30.36 130.487 28.312 129.591 26.776C128.695 25.1973 127.287 24.408 125.367 24.408C123.447 24.408 121.719 25.0907 120.183 26.456C118.689 27.8213 117.516 29.7627 116.663 32.28C115.809 34.7547 115.383 37.6133 115.383 40.856C115.383 42.4347 116.023 43.7147 117.303 44.696C118.583 45.6773 120.204 46.168 122.167 46.168ZM159.082 43.48C159.21 43.48 159.338 43.544 159.466 43.672C159.636 43.8 159.679 43.928 159.594 44.056C156.778 46.5307 153.642 47.768 150.186 47.768C147.796 47.768 145.748 47.2133 144.042 46.104C142.335 44.9947 141.055 43.5227 140.202 41.688C139.348 39.8533 138.922 37.8907 138.922 35.8C138.922 33.3253 139.498 31 140.65 28.824C141.802 26.6053 143.38 24.8347 145.385 23.512C147.434 22.1467 149.738 21.464 152.298 21.464C154.004 21.464 155.327 21.784 156.266 22.424C157.247 23.0213 157.738 23.8533 157.738 24.92C157.695 26.7973 156.244 28.5253 153.385 30.104C150.527 31.64 147.007 32.7067 142.826 33.304C142.911 37.016 143.764 40.0027 145.385 42.264C147.05 44.4827 149.396 45.592 152.426 45.592C153.535 45.592 154.666 45.4213 155.818 45.08C156.97 44.7387 158.015 44.2053 158.954 43.48H159.082ZM149.546 23.192C147.37 23.192 145.727 24.0453 144.618 25.752C143.508 27.4587 142.911 29.6773 142.826 32.408C149.695 31.256 153.13 29.0587 153.13 25.816C153.13 24.9627 152.81 24.3227 152.17 23.896C151.53 23.4267 150.655 23.192 149.546 23.192ZM189.826 42.072C189.868 42.0293 189.932 42.008 190.018 42.008C190.146 42.008 190.274 42.0933 190.402 42.264C190.53 42.392 190.572 42.4987 190.53 42.584C189.292 44.2907 188.14 45.5493 187.074 46.36C186.05 47.1707 185.004 47.576 183.938 47.576C181.548 47.576 180.354 45.8907 180.354 42.52L180.482 34.584C179.074 38.552 177.218 41.752 174.914 44.184C172.652 46.616 170.242 47.832 167.682 47.832C166.06 47.832 164.738 47.2773 163.714 46.168C162.732 45.016 162.242 43.2027 162.242 40.728C162.242 37.784 162.946 34.8187 164.354 31.832C165.804 28.8027 167.682 26.328 169.986 24.408C172.29 22.4453 174.636 21.464 177.026 21.464C177.922 21.464 178.796 21.6133 179.65 21.912C180.546 22.2107 181.335 22.6587 182.018 23.256C182.7 22.5733 183.106 21.8267 183.234 21.016C183.276 20.9307 183.426 20.888 183.682 20.888C183.98 20.888 184.108 20.9307 184.066 21.016L183.938 41.304C183.895 43.7787 184.492 45.016 185.73 45.016C186.796 45.016 188.162 44.0347 189.826 42.072ZM169.73 44.696C171.479 44.696 173.164 43.864 174.786 42.2C176.407 40.4933 177.708 38.4027 178.69 35.928C179.714 33.4533 180.226 31.128 180.226 28.952C180.226 27.3733 179.756 26.1147 178.818 25.176C177.922 24.1947 176.727 23.704 175.234 23.704C173.527 23.704 171.948 24.3227 170.498 25.56C169.047 26.7973 167.895 28.504 167.042 30.68C166.188 32.856 165.762 35.288 165.762 37.976C165.762 40.28 166.082 41.9867 166.722 43.096C167.404 44.1627 168.407 44.696 169.73 44.696ZM199.03 47.704C197.153 47.704 195.489 47.2987 194.038 46.488C192.587 45.6773 191.862 44.7173 191.862 43.608C191.862 43.0533 192.033 42.648 192.374 42.392C192.758 42.0933 193.206 41.944 193.718 41.944C194.187 41.944 194.593 42.0933 194.934 42.392C195.275 42.648 195.659 43.0533 196.086 43.608C196.811 44.504 197.494 45.1867 198.134 45.656C198.817 46.0827 199.734 46.296 200.886 46.296C202.123 46.296 203.062 45.976 203.702 45.336C204.342 44.696 204.662 43.7787 204.662 42.584C204.619 41.0053 204.086 39.6827 203.062 38.616C202.081 37.5493 200.609 36.3973 198.646 35.16C196.683 33.9227 195.19 32.7707 194.166 31.704C193.185 30.6373 192.694 29.336 192.694 27.8C192.694 25.9653 193.526 24.4933 195.19 23.384C196.854 22.232 198.731 21.656 200.822 21.656C202.529 21.656 204.001 21.976 205.238 22.616C206.518 23.2133 207.158 23.9813 207.158 24.92C207.158 25.432 206.987 25.8373 206.646 26.136C206.305 26.4347 205.878 26.584 205.366 26.584C204.811 26.584 204.342 26.4773 203.958 26.264C203.617 26.008 203.169 25.6027 202.614 25.048C201.974 24.408 201.355 23.9173 200.758 23.576C200.161 23.2347 199.393 23.064 198.454 23.064C197.515 23.064 196.769 23.2773 196.214 23.704C195.702 24.1307 195.446 24.792 195.446 25.688C195.446 26.9253 195.915 28.056 196.854 29.08C197.835 30.0613 199.265 31.192 201.142 32.472C203.275 33.9653 204.875 35.2667 205.942 36.376C207.009 37.4853 207.542 38.8293 207.542 40.408C207.542 41.6027 207.179 42.776 206.454 43.928C205.771 45.0373 204.769 45.9547 203.446 46.68C202.166 47.3627 200.694 47.704 199.03 47.704ZM229.705 42.456C229.833 42.456 229.961 42.5413 230.089 42.712C230.217 42.84 230.238 42.9467 230.153 43.032C228.361 44.696 226.739 45.912 225.289 46.68C223.881 47.4053 222.451 47.768 221.001 47.768C219.379 47.768 218.035 47.3413 216.969 46.488C215.902 45.6347 215.39 44.248 215.433 42.328L215.497 27.416C215.454 26.3067 215.369 25.5173 215.241 25.048C215.113 24.5787 214.835 24.28 214.409 24.152C214.025 23.9813 213.342 23.896 212.361 23.896C212.19 23.896 212.083 23.768 212.041 23.512C212.041 23.256 212.126 23.128 212.297 23.128C213.918 23.128 215.219 22.68 216.201 21.784C217.225 20.8453 217.822 19.6507 217.993 18.2C217.993 18.072 218.163 18.008 218.505 18.008C218.931 18.008 219.145 18.072 219.145 18.2V22.936C220.723 22.8933 223.689 22.744 228.041 22.488C228.211 22.488 228.339 22.552 228.425 22.68C228.553 22.7653 228.617 22.8933 228.617 23.064C228.574 23.4907 228.339 23.96 227.913 24.472C227.529 24.984 227.081 25.1973 226.569 25.112C223.625 24.728 221.15 24.5147 219.145 24.472L219.081 40.344C219.081 42.0933 219.379 43.3733 219.977 44.184C220.617 44.952 221.726 45.336 223.305 45.336C224.499 45.336 225.587 45.1013 226.569 44.632C227.55 44.12 228.574 43.3947 229.641 42.456H229.705Z" fill="white"/>
</svg>
