<svg width="42" height="42" viewBox="0 0 42 42" fill="none" xmlns="http://www.w3.org/2000/svg">
<path d="M25.375 22.7323L21 27.4567L16.625 22.7323M25.375 22.7323L22.5625 28.7165L25.375 30.2913M25.375 22.7323V25.252M25.375 30.2913L21 33.7559L16.625 30.2913M25.375 30.2913L24.125 32.1811L24.75 36.5906M25.375 30.2913V25.252M25.375 30.2913L27.25 22.7323M24.75 36.5906L21 40.685L17.25 36.5906M24.75 36.5906L25.0625 37.8504M24.75 36.5906L29.125 32.4961M25.0625 37.8504L23.8125 41H25.375L25.0625 37.8504ZM25.375 25.252L27.25 22.7323M27.25 22.7323L25.6875 14.8583L23.8125 13.5984L25.375 13.2835L31 4.77953L37.875 1.62992L40.6875 1M27.25 22.7323V13.2835M27.25 22.7323L29.125 32.4961M27.25 22.7323L32.5625 27.4567M40.6875 1L32.5625 6.03937L27.25 13.2835M40.6875 1L38.8125 5.09449M27.25 13.2835L32.5625 27.4567M27.25 13.2835L38.1875 24.937M27.25 13.2835L41 12.3386M27.25 13.2835L38.8125 5.09449M29.125 32.4961L32.5625 27.4567M32.5625 27.4567L38.1875 24.937M38.1875 24.937L37.875 18.0079L41 12.3386M41 12.3386L39.125 8.55906L38.8125 5.09449M16.625 22.7323L19.4375 28.7165L16.625 30.2913M16.625 22.7323V25.252M16.625 30.2913L17.875 32.1811L17.25 36.5906M16.625 30.2913V25.252M16.625 30.2913L14.75 22.7323M17.25 36.5906L16.9375 37.8504M17.25 36.5906L12.875 32.4961M16.9375 37.8504L18.1875 41H16.625L16.9375 37.8504ZM16.625 25.252L14.75 22.7323M14.75 22.7323L16.3125 14.8583L18.1875 13.5984L16.625 13.2835L11 4.77953L4.125 1.62992L1.3125 1M14.75 22.7323V13.2835M14.75 22.7323L12.875 32.4961M14.75 22.7323L9.4375 27.4567M1.3125 1L9.4375 6.03937L14.75 13.2835M1.3125 1L3.1875 5.09449M14.75 13.2835L9.4375 27.4567M14.75 13.2835L3.8125 24.937M14.75 13.2835L1 12.3386M14.75 13.2835L3.1875 5.09449M12.875 32.4961L9.4375 27.4567M9.4375 27.4567L3.8125 24.937M3.8125 24.937L4.125 18.0079L1 12.3386M1 12.3386L2.875 8.55906L3.1875 5.09449" stroke="#6316D6" stroke-width="0.5"/>
</svg>
