<svg width="150" height="150" viewBox="0 0 42 42" fill="none" xmlns="http://www.w3.org/2000/svg">
<path d="M25.375 12.746L23.5 13.6984L21.625 12.746M25.375 12.746L25.6875 10.2063M25.375 12.746L29.125 11.7937L28.1875 7.98413M25.6875 10.2063L24.5938 11M25.6875 10.2063L28.1875 7.98413M24.5938 11L23.5 11.7937L22.4062 11M24.5938 11L23.5 7.98413M23.5 7.98413L26.625 6.07937M23.5 7.98413L22.4062 11M23.5 7.98413L20.375 6.07937M26.625 6.07937L26.9375 3.85714L30.6875 1M26.625 6.07937H28.1875V7.98413M30.6875 1L23.5 4.1746L16.3125 1M30.6875 1L30.0625 6.07937L28.1875 7.98413M21.625 12.746L21.3125 10.2063M21.625 12.746L19.75 12.2698M21.3125 10.2063L22.4062 11M21.3125 10.2063L18.8125 7.98413M20.375 6.07937L20.0625 3.85714L16.3125 1M20.375 6.07937H18.8125V7.98413M16.3125 1L16.9375 6.07937L18.8125 7.98413M18.8125 7.98413L17.875 11.7937L18.8125 12.0317M26.9375 12.4286L26.3125 16.2381L26.9375 20.3651L25.375 21.3175L24.5938 24.4921M24.5938 24.4921L24.4375 30.8955M24.5938 24.4921L22.1979 26.3968M21 27.3492L19.4375 23.5397L19.75 12.2698M21 27.3492L21.4413 31.3409M21 27.3492L22.1979 26.3968M19.75 12.2698L18.8125 12.0317M18.8125 12.0317L18.5 13.6984L15.6875 15.6032M15.6875 15.6032L17.25 23.2222L17.553 24.4921M15.6875 15.6032L6.9375 18.1429L1.9375 24.4921M19.2697 31.6637L17.553 24.4921M22.5625 31.1742L22.1979 26.3968M9.125 31.4762L12.5625 27.9841L10.375 23.8571L1.9375 24.4921M9.125 31.4762L1.9375 24.4921M9.125 31.4762L14.125 32.4286L26.9375 30.5238L36.625 31.4762L41 35.2857L36.625 39.0952L29.75 41M1.9375 24.4921L1 30.8413L3.8125 35.6875L11 41H29.75M17.553 24.4921L15.6875 28.619L16.625 32.0569M29.75 41L28.1875 38.1429L34.75 34.9683L31 30.9232" stroke="#6316D6" stroke-width="0.5"/>
</svg>
