<svg width="150" height="150" viewBox="0 0 42 42" fill="none" xmlns="http://www.w3.org/2000/svg">
<path d="M36 14.125L35.375 13.5C34.8542 13.6042 33.75 13.8125 33.5 13.8125V17.25M36 14.125L34.75 16.625V19.125L36.625 17.25L36.9375 15.6875M36 14.125L36.9375 15.6875M36.9375 15.6875L38.5 16.9375H39.75L40.375 12.25L41 11L39.75 8.1875V6.3125M39.75 6.3125L36.625 8.1875M39.75 6.3125L37.25 3.1875L34.125 1.3125L30.375 1L27.875 1.625L25.6875 3.1875L25.0625 4.125L25.375 7.25L26.3125 4.4375L28.5 2.5625H31.3125L33.8125 3.5L36 6L36.625 8.1875M36.625 8.1875L34.75 6L32.25 5.375M36.625 8.1875L34.125 6.9375L32.25 5.375M36.625 8.1875H34.125M34.125 8.1875L29.75 10.0625L26.625 12.25L19.4375 17.875L10.375 21.625M34.125 8.1875L32.25 5.375M10.375 21.625L5.375 22.875L6.9375 23.8125L8.8125 24.125M10.375 21.625L16.9375 23.5L18.1875 26M10.375 21.625L8.8125 24.125M8.8125 24.125L8.1875 28.5L7.25 30.0625L5.0625 31.625L3.8125 36L1.3125 38.1875L1 39.75L2.5625 41L6.625 32.875L13.1875 30.0625L18.1875 26M18.1875 26L24.75 25.0625H26.9375M26.9375 25.0625L27.5625 25.6875H32.25V26.3125L31 27.875L28.8125 29.125V29.75L27.875 30.375L28.5 31.9375L32.875 27.5625L34.4375 24.75L31.625 22.5625L33.5 17.25M26.9375 25.0625L27.875 21L26.9375 16.625L29.4375 13.0312L32.25 13.8125L33.5 17.25" stroke="#6316D6" stroke-width="0.5"/>
</svg>
