<svg width="150" height="150" viewBox="0 0 42 42" fill="none" xmlns="http://www.w3.org/2000/svg">
<path d="M15.805 9.18898L13.915 7.92913L13.4317 8.94169M15.805 9.18898L18.5 8.5M15.805 9.18898L16.435 13.1875M15.805 9.18898L9.63644 12.5084L6.66999 9.8189M13.4317 8.94169L14.1331 7.29921M13.4317 8.94169L12.97 7.92913L11.08 9.18898L8.1875 8.1875L7.5625 4.125M13.4317 8.94169L12.7519 7.29921M14.545 6.22835L14.86 5.40945L17.2485 4.9318M14.545 6.22835L15.805 7.92913L17.695 7.61417L18.01 4.77953L17.2485 4.9318M14.545 6.22835H16.435L17.2485 4.9318M14.545 6.22835L14.1331 7.29921M14.1331 7.29921L13.4532 6.22835L14.86 3.20472M14.86 3.20472L13.4532 4.14961L12.025 3.20472M14.86 3.20472L16 1M16 1L19.125 4.14961M16 1H11M19.125 4.14961L18.5 8.5M19.125 4.14961L20.375 8.1875M18.5 8.5L20.375 8.1875M12.34 6.22835L12.025 5.40945L9.63644 4.9318M12.34 6.22835L11.08 7.92913L9.18998 7.61417L8.87499 4.77953L9.63644 4.9318M12.34 6.22835H10.45L9.63644 4.9318M12.34 6.22835L12.7519 7.29921M12.7519 7.29921L13.4317 6.22835L12.025 3.20472M12.025 3.20472L11 1M11 1L7.5625 4.125M7.5625 4.125L6.66999 9.8189M20.375 8.1875L25.6875 9.8189L29.5271 13.1875M29.5271 13.1875L24.625 15.375L16.435 13.1875M29.5271 13.1875L27.875 18.3228L21.625 17.25L16.435 13.1875M29.5271 13.1875L33.2481 18.9528M16.435 13.1875L19.125 19.125M16.435 13.1875L16.3125 18.1875L19.3241 23.9921M16.435 13.1875L9.18998 16.4331M33.2481 18.9528L28.1875 19.7484M33.2481 18.9528L35.7287 26.8268M19.125 19.125L32.875 39.75M19.125 19.125L22.25 19.7484M32.875 39.75L32.5625 36.3125L30.375 31.9375M32.875 39.75L27.145 35.0625M22.25 19.7484L30.375 31.9375M22.25 19.7484L24.31 20.375M30.375 31.9375L35.7287 37.25L34.4375 30.0625M24.31 20.375H26.625L28.1875 19.7484M24.31 20.375L34.4375 30.0625M34.4375 30.0625L37.25 32.875L41 36L39.4375 29.4375L35.7287 26.8268M28.1875 19.7484L35.7287 26.8268M23.7636 30.9213L25.57 41L27.145 38.7953V35.0625M23.7636 30.9213L27.145 35.0625M23.7636 30.9213L19.3241 23.9921M6.66999 9.8189L5.09499 12.0236M5.09499 12.0236L9.18998 16.4331M5.09499 12.0236L7.92999 19.8976L9.81998 24.937L11.08 23.6772M9.18998 16.4331L11.08 23.6772M11.08 23.6772L19.27 26.1969L19.3241 23.9921M11.08 23.6772L12.9343 26.7673M11.08 23.6772L10.135 24.622L12.8982 26.771M12.8982 26.771L12.97 26.8268L12.9343 26.7673M12.8982 26.771L12.34 26.8268L12.025 28.2423M12.8982 26.771L12.9343 26.7673M12.9343 26.7673L15.49 26.5118M1 32.875V35.7071L3.52 36.3125M1 32.875C1 32.875 11.1355 28.7911 12.025 28.2423M1 32.875L2.575 32.2375L4.77999 32.875L5.09499 34.75L3.52 36.3125M3.52 36.3125L16.75 30.2913M16.75 30.2913L17.065 28.7165L15.49 27.4567H13.285C12.9464 27.67 12.4878 27.9567 12.025 28.2423M16.75 30.2913L16.885 29.9764M15.49 26.5118L17.695 28.0866L16.885 29.9764M15.49 26.5118H17.38L19.9 29.2606M16.885 29.9764L19.9 29.2606M19.9 29.2606L24.31 34.0709" stroke="#6316D6" stroke-width="0.5"/>
</svg>
