<svg width="42" height="42" viewBox="0 0 42 42" fill="none" xmlns="http://www.w3.org/2000/svg">
<path d="M36 5.6875L34.4375 6.3125V4.75L35.375 3.8125V2.25M36 5.6875L41 4.75L39.125 2.875L35.375 2.25M36 5.6875L35.0625 9.75V13.1875L34.4375 14.75L34.125 18.1875L30.6875 22.25L30.375 25.0625L27.5625 30.6875M35.375 2.25L34.125 1.3125L32.25 1L29.75 2.875L26.9375 8.1875L20.0625 14.125M20.0625 14.125L7.25 19.125L11.625 20.0625M20.0625 14.125L24.75 11.3125H28.5L33.5 12.5625L32.25 17.25L27.875 22.875L22.5625 24.125L18.8125 22.875L16.625 22.019M11.625 20.0625L16.625 22.019M11.625 20.0625L3.5 22.875L1 25.375L11.9375 23.5L2.25 30.0625L4.125 31L7.875 30.6875C8.91667 29.9583 11.125 28.4375 11.625 28.1875M27.5625 30.6875L26 29.75L25.0625 30.2188M27.5625 30.6875L26.9375 34.125L29.125 39.4375L31 38.8125L33.8125 41H25.0625L26 39.5938M24.125 28.1875V30.6875L25.0625 30.2188M24.125 28.1875H21.3125M24.125 28.1875L22.5625 32.875L24.4375 37.875H26L27.1458 37.25M21.3125 28.1875L18.8125 29.125L17.875 27.875L11.625 28.1875M21.3125 28.1875L20.6875 32.25L23.1875 37.25L22.5625 38.5L21.625 38.1875L21 39.4375L26 39.5938M11.625 28.1875L16.625 22.019M25.0625 30.2188L25.6875 34.125L27.1458 37.25M27.1458 37.25L27.875 38.8125L27.25 39.75L26.3125 39.125L26 39.5938" stroke="#6316D6" stroke-width="0.5"/>
</svg>
