<svg width="150" height="150" viewBox="0 0 42 42" fill="none" xmlns="http://www.w3.org/2000/svg">
<path d="M22.875 15.375L21.625 13.1875L21 15.375L20.375 13.1875L19.125 15.375M22.875 15.375L25.0625 18.1875M22.875 15.375L23.8125 14.4375L22.5625 13.5L21.9375 11.3125L23.1875 8.1875L24.125 7.875L24.4375 8.5L23.8125 11.3125L24.125 12.5625L25.0625 13.8125L24.75 16L23.8472 16.625L26 15.375L25.6875 11L31.625 1.3125L32.875 1L33.1875 2.25L27.25 11.3125L27.5625 14.4375L26.625 17.25L25.0625 18.1875M25.0625 18.1875V22.5625M25.0625 18.1875L26 18.5L27.5625 17.5625L28.5 15.0625L30.375 13.8125L36.625 12.25L37.875 12.5625L39.75 11.9375H41L40.375 13.1875L37.875 13.8125H36L30.375 15.6875L29.4375 17.875L26.625 20.375L25.8438 21.4688M25.0625 22.5625L25.8438 21.4688M25.0625 22.5625L24.2812 23.3438M23.5 24.125L25.6875 27.25M23.5 24.125L24.2812 23.3438M23.5 24.125H18.5M25.6875 27.25L26.625 31L25.6875 34.4375L22.875 36.9375H19.125L16.3125 34.4375L15.375 31L16.3125 27.25M25.6875 27.25L27.25 28.5L33.1875 40.375L34.4375 41L34.75 39.75L29.125 27.25L25.6875 24.125C25.5833 23.8125 25.3626 23.1722 25.313 23.1108M25.8438 21.4688L28.8125 20.0625L36.625 21.9375L39.4375 23.8125V24.4375L38.8125 24.75L35.375 23.1875L29.125 22.25L25.313 23.1108M24.2812 23.3438L25.313 23.1108M19.125 15.375L16.9375 18.1875M19.125 15.375L18.1875 14.4375L19.4375 13.5L20.0625 11.3125L18.8125 8.1875L17.875 7.875L17.5625 8.5L18.1875 11.3125L17.875 12.5625L16.9375 13.8125L17.25 16L18.1528 16.625L16 15.375L16.3125 11L10.375 1.3125L9.125 1L8.8125 2.25L14.75 11.3125L14.4375 14.4375L15.375 17.25L16.9375 18.1875M16.9375 18.1875V22.5625M16.9375 18.1875L16 18.5L14.4375 17.5625L13.5 15.0625L11.625 13.8125L5.375 12.25L4.125 12.5625L2.25 11.9375H1L1.625 13.1875L4.125 13.8125H6L11.625 15.6875L12.5625 17.875L15.375 20.375L16.1562 21.4688M16.9375 22.5625L16.1562 21.4688M16.9375 22.5625L17.7188 23.3438M18.5 24.125L16.3125 27.25M18.5 24.125L17.7188 23.3438M16.3125 27.25L14.75 28.5L8.8125 40.375L7.5625 41L7.25 39.75L12.875 27.25L16.3125 24.125C16.4167 23.8125 16.6374 23.1722 16.687 23.1108M16.1562 21.4688L13.1875 20.0625L5.375 21.9375L2.5625 23.8125V24.4375L3.1875 24.75L6.625 23.1875L12.875 22.25L16.687 23.1108M17.7188 23.3438L16.687 23.1108" stroke="#6316D6" stroke-width="0.5"/>
</svg>
